<svg width="31" height="18" viewBox="0 0 31 18" fill="none" xmlns="http://www.w3.org/2000/svg">
<path d="M30.729 16.09C30.6471 15.9533 30.1421 14.8538 27.7111 12.5941C25.1661 10.2279 25.508 10.6125 28.5734 6.52097C30.4406 4.02945 31.1866 2.50791 30.9534 1.85769C30.7314 1.23778 29.358 1.40122 29.358 1.40122L24.7922 1.42797C24.7922 1.42797 24.4539 1.38221 24.2017 1.53258C23.9566 1.68116 23.7993 2.02351 23.7993 2.02351C23.7993 2.02351 23.0758 3.95218 22.1108 5.5914C20.0768 9.05113 19.2619 9.23359 18.9296 9.01844C18.1568 8.51799 18.3503 7.00596 18.3503 5.93375C18.3503 2.58042 18.8572 1.1825 17.361 0.821138C16.8636 0.701079 16.4986 0.621435 15.2279 0.60836C13.5981 0.591123 12.2176 0.614303 11.4372 0.996471C10.9167 1.25145 10.5161 1.82024 10.7612 1.85234C11.0633 1.89216 11.747 2.03659 12.1096 2.53109C12.5785 3.16823 12.5619 4.6024 12.5619 4.6024C12.5619 4.6024 12.8313 8.5489 11.9334 9.03983C11.3161 9.37624 10.471 8.68976 8.65721 5.5498C7.72838 3.94267 7.02567 2.16437 7.02567 2.16437C7.02567 2.16437 6.89094 1.83332 6.64939 1.6568C6.35679 1.44164 5.94668 1.37329 5.94668 1.37329L1.6052 1.40004C1.6052 1.40004 0.953528 1.41906 0.714346 1.70256C0.501872 1.95575 0.697134 2.47641 0.697134 2.47641C0.697134 2.47641 4.09613 10.4389 7.94441 14.4544C11.4752 18.1346 15.4825 17.8933 15.4825 17.8933H17.298C17.298 17.8933 17.847 17.8327 18.126 17.5301C18.3842 17.2526 18.3747 16.7313 18.3747 16.7313C18.3747 16.7313 18.3385 14.2909 19.4703 13.9319C20.5849 13.5783 22.017 16.2903 23.5346 17.3346C24.6818 18.1239 25.5537 17.9509 25.5537 17.9509L29.6121 17.8939C29.6121 17.8927 31.7356 17.7614 30.729 16.09Z" fill="#CAC8B4"/>
</svg>
