<svg width="46" height="48" viewBox="0 0 46 48" fill="none" xmlns="http://www.w3.org/2000/svg">
<path fill-rule="evenodd" clip-rule="evenodd" d="M17.0429 18.0429C17.4334 17.6524 18.0666 17.6524 18.4571 18.0429L23 22.5858L27.5429 18.0429C27.9334 17.6524 28.5666 17.6524 28.9571 18.0429C29.3476 18.4334 29.3476 19.0666 28.9571 19.4571L24.4142 24L28.9571 28.5429C29.3476 28.9334 29.3476 29.5666 28.9571 29.9571C28.5666 30.3476 27.9334 30.3476 27.5429 29.9571L23 25.4142L18.4571 29.9571C18.0666 30.3476 17.4334 30.3476 17.0429 29.9571C16.6524 29.5666 16.6524 28.9334 17.0429 28.5429L21.5858 24L17.0429 19.4571C16.6524 19.0666 16.6524 18.4334 17.0429 18.0429Z" fill="#5D738B"/>
</svg>
