<svg width="14" height="14" viewBox="0 0 14 14" fill="none" xmlns="http://www.w3.org/2000/svg">
<path fill-rule="evenodd" clip-rule="evenodd" d="M2.36843 2.3667C2.67217 2.06295 3.16463 2.06295 3.46837 2.3667L7.00174 5.90006L10.5351 2.3667C10.8388 2.06295 11.3313 2.06295 11.635 2.3667C11.9388 2.67044 11.9388 3.1629 11.635 3.46664L8.10168 7L11.635 10.5334C11.9388 10.8371 11.9388 11.3296 11.635 11.6333C11.3313 11.937 10.8388 11.937 10.5351 11.6333L7.00174 8.09994L3.46837 11.6333C3.16463 11.937 2.67217 11.937 2.36843 11.6333C2.06469 11.3296 2.06469 10.8371 2.36843 10.5334L5.90179 7L2.36843 3.46664C2.06469 3.1629 2.06469 2.67044 2.36843 2.3667Z" fill="white"/>
</svg>
