<svg width="20" height="20" viewBox="0 0 20 20" fill="none" xmlns="http://www.w3.org/2000/svg">
<path d="M15.7708 2.61419C15.5365 2.37974 15.2583 2.19377 14.952 2.06691C14.6458 1.94006 14.3176 1.8748 13.9861 1.87488C13.6546 1.87496 13.3264 1.94036 13.0202 2.06736C12.714 2.19436 12.4359 2.38046 12.2017 2.61502L4.27918 10.5484C3.80712 11.0215 3.54191 11.6625 3.54168 12.3309V15C3.54168 15.345 3.82168 15.625 4.16668 15.625H6.85251C7.52168 15.625 8.16334 15.3584 8.63584 14.8859L16.5525 6.96419C17.0247 6.49084 17.29 5.8495 17.29 5.18086C17.29 4.51222 17.0247 3.87088 16.5525 3.39753L15.7708 2.61419ZM3.33334 16.875C3.16758 16.875 3.00861 16.9409 2.8914 17.0581C2.77419 17.1753 2.70834 17.3343 2.70834 17.5C2.70834 17.6658 2.77419 17.8248 2.8914 17.942C3.00861 18.0592 3.16758 18.125 3.33334 18.125H16.6667C16.8324 18.125 16.9914 18.0592 17.1086 17.942C17.2258 17.8248 17.2917 17.6658 17.2917 17.5C17.2917 17.3343 17.2258 17.1753 17.1086 17.0581C16.9914 16.9409 16.8324 16.875 16.6667 16.875H3.33334Z" fill="white"/>
</svg>
