<svg width="32" height="32" viewBox="0 0 32 32" fill="none" xmlns="http://www.w3.org/2000/svg">
<path d="M20 11V8.5C20 7.83696 19.7366 7.20107 19.2678 6.73223C18.7989 6.26339 18.163 6 17.5 6H5.5C4.83696 6 4.20107 6.26339 3.73223 6.73223C3.26339 7.20107 3 7.83696 3 8.5V23.5C3 24.163 3.26339 24.7989 3.73223 25.2678C4.20107 25.7366 4.83696 26 5.5 26H17.5C18.163 26 18.7989 25.7366 19.2678 25.2678C19.7366 24.7989 20 24.163 20 23.5V21M24 11L29 16M29 16L24 21M29 16H11.9375" stroke="white" stroke-width="2" stroke-linecap="round" stroke-linejoin="round"/>
</svg>
