<svg width="219" height="258" viewBox="0 0 219 258" fill="none" xmlns="http://www.w3.org/2000/svg">
<path fill-rule="evenodd" clip-rule="evenodd" d="M100.531 93.19V80.2759H104V103.991H100.881L95.1901 89.0926L91.943 80.6081V80.2759H95.0619L100.761 94.9022C100.608 94.1781 100.531 93.6074 100.531 93.19ZM95.4123 103.992H91.943V86.9459L95.4123 96.0182V103.992Z" fill="url(#paint0_linear_1074_51721)"/>
<path fill-rule="evenodd" clip-rule="evenodd" d="M85.7651 85.0037V87.44V88.7348H84.0048V87.44V85.0037V82.8059H85.7651V85.0037ZM86.5256 85.0037H87.9611C89.1147 85.0037 89.6872 85.5829 89.6872 86.75V102.254C89.6872 103.412 89.1147 103.992 87.9611 103.992H81.7831C80.6552 103.992 80.0912 103.412 80.0912 102.254V86.75C80.0912 85.5829 80.6552 85.0037 81.7831 85.0037H83.2528V87.44H82.9367V101.547H86.8417V87.44H86.5256V85.0037Z" fill="url(#paint1_linear_1074_51721)"/>
<path d="M76.1177 85.0037H70.3157C69.1621 85.0037 68.5896 85.5829 68.5896 86.75V90.8985H71.3838V87.44H75.0496V91.4437L71.5547 93.7948V94.3911L75.0496 96.7848V101.555H71.3838V97.8837H68.5811V102.262C68.5811 103.421 69.145 104 70.273 104H76.1092C77.2542 104 77.8267 103.421 77.8267 102.262V96.9381C77.8267 96.18 77.5191 95.6092 76.9039 95.2259L75.118 94.11L76.8782 92.9685C77.5106 92.5596 77.8267 91.9718 77.8267 91.2222V86.7585C77.8267 85.5829 77.2542 85.0037 76.1177 85.0037Z" fill="url(#paint2_linear_1074_51721)"/>
<path d="M59.1987 96.7081C59.3184 96.1289 59.3782 95.6689 59.3782 95.3367V85.0037H56.6011V103.983H59.0962L63.6592 92.0315C63.5396 92.6107 63.4798 93.0707 63.4798 93.4029V103.983H66.2569V85.0037H63.7618L59.1987 96.7081Z" fill="url(#paint3_linear_1074_51721)"/>
<path d="M53.6616 95.047C53.6017 94.9874 53.0976 94.6637 52.132 94.0759C53.0634 93.5051 53.559 93.19 53.6188 93.1388C54.0205 92.7811 54.2255 92.2785 54.2255 91.6311V86.7414C54.2255 85.5744 53.6616 84.9951 52.5336 84.9951H44.9799V103.974H52.5849C53.5419 103.974 54.3281 103.199 54.3281 102.237V96.5974C54.3195 95.95 54.1059 95.4218 53.6616 95.047ZM47.8253 87.3888H51.3886V91.9888L50.0129 92.96H47.8253V87.3888ZM51.4655 101.598H47.8253V95.2685H50.0641L51.4655 96.1885V101.598Z" fill="url(#paint4_linear_1074_51721)"/>
<path fill-rule="evenodd" clip-rule="evenodd" d="M43.4759 80.2759L39.7332 89.0415L38.5796 91.7248L36.7083 96.1033L35.5633 98.7952V103.991H32V80.2759H35.5633V90.3107L39.511 80.2759H43.4075H43.4759ZM40.075 103.991L37.9387 98.9826L39.8357 94.553L43.9971 103.991H40.075Z" fill="url(#paint5_linear_1074_51721)"/>
<g filter="url(#filter0_i_1074_51721)">
<path d="M45.8997 70.1379C45.8997 64.5389 50.4736 60 56.1159 60H79.7452C85.3875 60 89.9614 64.5389 89.9614 70.1379C89.9614 75.737 85.3875 80.2759 79.7452 80.2759H56.1159C50.4736 80.2759 45.8997 75.737 45.8997 70.1379Z" fill="url(#paint6_linear_1074_51721)"/>
</g>
<g filter="url(#filter1_ddddd_1074_51721)">
<rect x="71.475" y="61.9312" width="16.5405" height="16.4138" rx="8.2069" fill="url(#paint7_linear_1074_51721)"/>
</g>
<g filter="url(#filter2_f_1074_51721)">
<rect x="72.1699" y="62.6208" width="15.1506" height="15.0345" rx="7.51724" fill="url(#paint8_linear_1074_51721)"/>
</g>
<g filter="url(#filter3_d_1074_51721)">
<rect x="72.1699" y="62.6208" width="15.1506" height="15.0345" rx="7.51724" fill="url(#paint9_linear_1074_51721)"/>
</g>
<g filter="url(#filter4_i_1074_51721)">
<path d="M81.2047 65.7932V66.9766C82.456 67.545 83.3943 68.7842 83.3943 70.2191C83.3943 72.1852 81.7512 73.7878 79.7356 73.7878C77.7201 73.7878 76.077 72.1852 76.077 70.2191C76.077 68.7842 77.0248 67.545 78.2857 66.9766V65.7932C76.3943 66.4175 74.9498 68.1692 74.9498 70.2191C74.9498 72.8002 77.0992 74.8967 79.7452 74.8967C82.3912 74.8967 84.5406 72.8002 84.5406 70.2191C84.5215 68.1692 83.0961 66.4268 81.2047 65.7932Z" fill="url(#paint10_linear_1074_51721)"/>
<path d="M80.2309 64.8276H79.2587V67.7242H80.2309V64.8276Z" fill="url(#paint11_linear_1074_51721)"/>
</g>
<defs>
<filter id="filter0_i_1074_51721" x="45.8997" y="60" width="44.0618" height="31.1622" filterUnits="userSpaceOnUse" color-interpolation-filters="sRGB">
<feFlood flood-opacity="0" result="BackgroundImageFix"/>
<feBlend mode="normal" in="SourceGraphic" in2="BackgroundImageFix" result="shape"/>
<feColorMatrix in="SourceAlpha" type="matrix" values="0 0 0 0 0 0 0 0 0 0 0 0 0 0 0 0 0 0 127 0" result="hardAlpha"/>
<feOffset dy="10.8864"/>
<feGaussianBlur stdDeviation="10.8864"/>
<feComposite in2="hardAlpha" operator="arithmetic" k2="-1" k3="1"/>
<feColorMatrix type="matrix" values="0 0 0 0 0.720833 0 0 0 0 0.372431 0 0 0 0 0.372431 0 0 0 0.5 0"/>
<feBlend mode="normal" in2="shape" result="effect1_innerShadow_1074_51721"/>
</filter>
<filter id="filter1_ddddd_1074_51721" x="-59.1614" y="-19.7166" width="277.813" height="277.687" filterUnits="userSpaceOnUse" color-interpolation-filters="sRGB">
<feFlood flood-opacity="0" result="BackgroundImageFix"/>
<feColorMatrix in="SourceAlpha" type="matrix" values="0 0 0 0 0 0 0 0 0 0 0 0 0 0 0 0 0 0 127 0" result="hardAlpha"/>
<feOffset dy="1.68271"/>
<feGaussianBlur stdDeviation="3.02319"/>
<feColorMatrix type="matrix" values="0 0 0 0 0 0 0 0 0 0 0 0 0 0 0 0 0 0 0.190443 0"/>
<feBlend mode="normal" in2="BackgroundImageFix" result="effect1_dropShadow_1074_51721"/>
<feColorMatrix in="SourceAlpha" type="matrix" values="0 0 0 0 0 0 0 0 0 0 0 0 0 0 0 0 0 0 127 0" result="hardAlpha"/>
<feOffset dy="4.25569"/>
<feGaussianBlur stdDeviation="7.79762"/>
<feColorMatrix type="matrix" values="0 0 0 0 0 0 0 0 0 0 0 0 0 0 0 0 0 0 0.281617 0"/>
<feBlend mode="normal" in2="effect1_dropShadow_1074_51721" result="effect2_dropShadow_1074_51721"/>
<feColorMatrix in="SourceAlpha" type="matrix" values="0 0 0 0 0 0 0 0 0 0 0 0 0 0 0 0 0 0 127 0" result="hardAlpha"/>
<feOffset dy="8.68121"/>
<feGaussianBlur stdDeviation="15.5447"/>
<feColorMatrix type="matrix" values="0 0 0 0 0 0 0 0 0 0 0 0 0 0 0 0 0 0 0.356146 0"/>
<feBlend mode="normal" in2="effect2_dropShadow_1074_51721" result="effect3_dropShadow_1074_51721"/>
<feColorMatrix in="SourceAlpha" type="matrix" values="0 0 0 0 0 0 0 0 0 0 0 0 0 0 0 0 0 0 127 0" result="hardAlpha"/>
<feOffset dy="17.8817"/>
<feGaussianBlur stdDeviation="29.1875"/>
<feColorMatrix type="matrix" values="0 0 0 0 0 0 0 0 0 0 0 0 0 0 0 0 0 0 0.432245 0"/>
<feBlend mode="normal" in2="effect3_dropShadow_1074_51721" result="effect4_dropShadow_1074_51721"/>
<feColorMatrix in="SourceAlpha" type="matrix" values="0 0 0 0 0 0 0 0 0 0 0 0 0 0 0 0 0 0 127 0" result="hardAlpha"/>
<feOffset dy="48.9886"/>
<feGaussianBlur stdDeviation="65.3182"/>
<feColorMatrix type="matrix" values="0 0 0 0 0 0 0 0 0 0 0 0 0 0 0 0 0 0 0.59 0"/>
<feBlend mode="normal" in2="effect4_dropShadow_1074_51721" result="effect5_dropShadow_1074_51721"/>
<feBlend mode="normal" in="SourceGraphic" in2="effect5_dropShadow_1074_51721" result="shape"/>
</filter>
<filter id="filter2_f_1074_51721" x="50.3972" y="40.8481" width="58.6961" height="58.5799" filterUnits="userSpaceOnUse" color-interpolation-filters="sRGB">
<feFlood flood-opacity="0" result="BackgroundImageFix"/>
<feBlend mode="normal" in="SourceGraphic" in2="BackgroundImageFix" result="shape"/>
<feGaussianBlur stdDeviation="10.8864" result="effect1_foregroundBlur_1074_51721"/>
</filter>
<filter id="filter3_d_1074_51721" x="61.2836" y="40.8481" width="58.6961" height="58.5799" filterUnits="userSpaceOnUse" color-interpolation-filters="sRGB">
<feFlood flood-opacity="0" result="BackgroundImageFix"/>
<feColorMatrix in="SourceAlpha" type="matrix" values="0 0 0 0 0 0 0 0 0 0 0 0 0 0 0 0 0 0 127 0" result="hardAlpha"/>
<feOffset dx="10.8864"/>
<feGaussianBlur stdDeviation="10.8864"/>
<feColorMatrix type="matrix" values="0 0 0 0 0 0 0 0 0 0 0 0 0 0 0 0 0 0 0.3 0"/>
<feBlend mode="normal" in2="BackgroundImageFix" result="effect1_dropShadow_1074_51721"/>
<feBlend mode="normal" in="SourceGraphic" in2="effect1_dropShadow_1074_51721" result="shape"/>
</filter>
<filter id="filter4_i_1074_51721" x="74.9498" y="64.8276" width="10.5907" height="10.0691" filterUnits="userSpaceOnUse" color-interpolation-filters="sRGB">
<feFlood flood-opacity="0" result="BackgroundImageFix"/>
<feBlend mode="normal" in="SourceGraphic" in2="BackgroundImageFix" result="shape"/>
<feColorMatrix in="SourceAlpha" type="matrix" values="0 0 0 0 0 0 0 0 0 0 0 0 0 0 0 0 0 0 127 0" result="hardAlpha"/>
<feOffset dx="1"/>
<feGaussianBlur stdDeviation="3.2"/>
<feComposite in2="hardAlpha" operator="arithmetic" k2="-1" k3="1"/>
<feColorMatrix type="matrix" values="0 0 0 0 0 0 0 0 0 0 0 0 0 0 0 0 0 0 0.25 0"/>
<feBlend mode="normal" in2="shape" result="effect1_innerShadow_1074_51721"/>
</filter>
<linearGradient id="paint0_linear_1074_51721" x1="97.9715" y1="80.2759" x2="97.9715" y2="103.992" gradientUnits="userSpaceOnUse">
<stop stop-color="#FBD360"/>
<stop offset="1" stop-color="#F2AF55"/>
</linearGradient>
<linearGradient id="paint1_linear_1074_51721" x1="84.8892" y1="82.8059" x2="84.8892" y2="103.992" gradientUnits="userSpaceOnUse">
<stop stop-color="#FBD360"/>
<stop offset="1" stop-color="#F2AF55"/>
</linearGradient>
<linearGradient id="paint2_linear_1074_51721" x1="73.2039" y1="85.0037" x2="73.2039" y2="104" gradientUnits="userSpaceOnUse">
<stop stop-color="white"/>
<stop offset="1" stop-color="#C7C6B2"/>
</linearGradient>
<linearGradient id="paint3_linear_1074_51721" x1="61.429" y1="85.0037" x2="61.429" y2="103.983" gradientUnits="userSpaceOnUse">
<stop stop-color="white"/>
<stop offset="1" stop-color="#C7C6B2"/>
</linearGradient>
<linearGradient id="paint4_linear_1074_51721" x1="49.654" y1="84.9951" x2="49.654" y2="103.974" gradientUnits="userSpaceOnUse">
<stop stop-color="white"/>
<stop offset="1" stop-color="#C7C6B2"/>
</linearGradient>
<linearGradient id="paint5_linear_1074_51721" x1="37.9986" y1="80.2759" x2="37.9986" y2="103.991" gradientUnits="userSpaceOnUse">
<stop stop-color="white"/>
<stop offset="1" stop-color="#C7C6B2"/>
</linearGradient>
<linearGradient id="paint6_linear_1074_51721" x1="67.9305" y1="60" x2="67.9305" y2="80.2759" gradientUnits="userSpaceOnUse">
<stop stop-color="#D12D2D"/>
<stop offset="1" stop-color="#901E1E"/>
</linearGradient>
<linearGradient id="paint7_linear_1074_51721" x1="71.475" y1="70.138" x2="88.0155" y2="70.138" gradientUnits="userSpaceOnUse">
<stop stop-color="#FD8686"/>
<stop offset="1" stop-color="#820F0F"/>
</linearGradient>
<linearGradient id="paint8_linear_1074_51721" x1="72.1699" y1="70.1381" x2="87.3205" y2="70.1381" gradientUnits="userSpaceOnUse">
<stop stop-color="#A90D0D"/>
<stop offset="0.515625" stop-color="#E27474"/>
<stop offset="1" stop-color="#FFE4E4"/>
</linearGradient>
<linearGradient id="paint9_linear_1074_51721" x1="72.1699" y1="70.1381" x2="87.3205" y2="70.1381" gradientUnits="userSpaceOnUse">
<stop stop-color="#A90D0D"/>
<stop offset="0.515625" stop-color="#E25757"/>
<stop offset="1" stop-color="#FFB0B0"/>
</linearGradient>
<linearGradient id="paint10_linear_1074_51721" x1="74.9498" y1="70.7814" x2="84.5404" y2="70.8589" gradientUnits="userSpaceOnUse">
<stop stop-color="#782020"/>
<stop offset="1" stop-color="#A73939"/>
</linearGradient>
<linearGradient id="paint11_linear_1074_51721" x1="79.2587" y1="66.4148" x2="80.231" y2="66.4173" gradientUnits="userSpaceOnUse">
<stop stop-color="#782020"/>
<stop offset="1" stop-color="#A73939"/>
</linearGradient>
</defs>
</svg>
