<svg width="32" height="32" viewBox="0 0 32 32" fill="none" xmlns="http://www.w3.org/2000/svg">
<path d="M29.3334 13.3333V12.2893C29.3334 9.70266 29.3334 8.41066 28.5521 7.60666C27.7707 6.80399 26.5147 6.80399 24.0001 6.80399H21.2281C20.0054 6.80399 19.9947 6.80133 18.8947 6.25066L14.4534 4.02799C12.5987 3.09999 11.6707 2.63599 10.6827 2.66799C9.69475 2.69999 8.80008 3.22399 7.00408 4.27199L5.36808 5.22666C4.04941 5.99599 3.39075 6.38133 3.02941 7.02133C2.66675 7.66133 2.66675 8.43999 2.66675 9.99866V20.9547C2.66675 23.0013 2.66675 24.0253 3.12275 24.5947C3.42675 24.9747 3.85208 25.2293 4.32275 25.3147C5.02941 25.4413 5.89608 24.936 7.62675 23.9253C8.80275 23.2387 9.93342 22.5253 11.3401 22.7187C12.5187 22.8813 13.6134 23.6253 14.6667 24.152M10.6667 2.66666V22.6667M20.0001 6.66666V12.6667" stroke="#869EBA" stroke-width="2" stroke-linecap="round" stroke-linejoin="round"/>
<path d="M23.3333 22H23.3453M24.4107 28.912C24.1181 29.1842 23.7329 29.3348 23.3333 29.3333C22.9307 29.3333 22.5453 29.1827 22.256 28.9107C19.608 26.4173 16.0613 23.6307 17.7907 19.5867C18.7267 17.4 20.9733 16 23.3333 16C25.6933 16 27.9413 17.4 28.876 19.5867C30.604 23.6267 27.0653 26.428 24.4107 28.912Z" stroke="#869EBA" stroke-width="2" stroke-linecap="round" stroke-linejoin="round"/>
</svg>
