<svg xmlns="http://www.w3.org/2000/svg" fill="none" viewBox="52 48 72 44">
<path fill-rule="evenodd" clip-rule="evenodd" d="M120.531 81.19V68.2759H124V91.9915H120.881L115.19 77.0926L111.943 68.6081V68.2759H115.062L120.761 82.9022C120.608 82.1781 120.531 81.6074 120.531 81.19ZM115.412 91.9915H111.943V74.9459L115.412 84.0182V91.9915Z" fill="url(#paint0_linear_604_45078)"/>
<path fill-rule="evenodd" clip-rule="evenodd" d="M105.765 73.0037V75.44V76.7348H104.005V75.44V73.0037V70.8059H105.765V73.0037ZM106.526 73.0036H107.961C109.115 73.0036 109.687 73.5829 109.687 74.7499V90.2537C109.687 91.4122 109.115 91.9915 107.961 91.9915H101.783C100.655 91.9915 100.091 91.4122 100.091 90.2537V74.7499C100.091 73.5829 100.655 73.0036 101.783 73.0036H103.253V75.4399H102.937V89.5467H106.842V75.4399H106.526V73.0036Z" fill="url(#paint1_linear_604_45078)"/>
<path d="M96.1177 73.0036H90.3157C89.1621 73.0036 88.5896 73.5829 88.5896 74.7499V78.8985H91.3838V75.4399H95.0496V79.4437L91.5547 81.7948V82.3911L95.0496 84.7848V89.5552H91.3838V85.8837H88.5811V90.2622C88.5811 91.4207 89.145 92 90.273 92H96.1092C97.2542 92 97.8267 91.4207 97.8267 90.2622V84.9381C97.8267 84.18 97.5191 83.6092 96.9039 83.2259L95.118 82.11L96.8782 80.9685C97.5106 80.5596 97.8267 79.9718 97.8267 79.2222V74.7585C97.8267 73.5829 97.2542 73.0036 96.1177 73.0036Z" fill="url(#paint2_linear_604_45078)"/>
<path d="M79.1988 84.7081C79.3184 84.1289 79.3782 83.6689 79.3782 83.3366V73.0036H76.6011V91.983H79.0962L83.6593 80.0314C83.5396 80.6107 83.4798 81.0707 83.4798 81.4029V91.983H86.2569V73.0036H83.7618L79.1988 84.7081Z" fill="url(#paint3_linear_604_45078)"/>
<path d="M73.6615 83.047C73.6017 82.9874 73.0976 82.6637 72.132 82.0759C73.0634 81.5052 73.559 81.19 73.6188 81.1389C74.0204 80.7811 74.2255 80.2785 74.2255 79.6311V74.7415C74.2255 73.5744 73.6615 72.9952 72.5336 72.9952H64.9798V91.9745H72.5849C73.5419 91.9745 74.328 91.1993 74.328 90.2367V84.5974C74.3195 83.95 74.1059 83.4219 73.6615 83.047ZM67.8253 75.3889H71.3886V79.9889L70.0128 80.96H67.8253V75.3889ZM71.4655 89.5978H67.8253V83.2685H70.0641L71.4655 84.1885V89.5978Z" fill="url(#paint4_linear_604_45078)"/>
<path fill-rule="evenodd" clip-rule="evenodd" d="M63.4759 68.2759L59.7332 77.0414L58.5796 79.7248L56.7083 84.1033L55.5633 86.7952V91.9915H52V68.2759H55.5633V78.3107L59.511 68.2759H63.4075H63.4759ZM60.075 91.9915L57.9387 86.9826L59.8357 82.5529L63.9971 91.9915H60.075Z" fill="url(#paint5_linear_604_45078)"/>
<g filter="url(#filter0_i_604_45078)">
<path d="M65.8997 58.1379C65.8997 52.5389 70.4736 48 76.1159 48H99.7452C105.387 48 109.961 52.5389 109.961 58.1379C109.961 63.737 105.387 68.2759 99.7452 68.2759H76.1159C70.4736 68.2759 65.8997 63.737 65.8997 58.1379Z" fill="url(#paint6_linear_604_45078)"/>
</g>
<g filter="url(#filter1_ddddd_604_45078)">
<rect x="91.4749" y="49.9311" width="16.5405" height="16.4138" rx="8.2069" fill="url(#paint7_linear_604_45078)"/>
</g>
<g filter="url(#filter2_f_604_45078)">
<rect x="92.1698" y="50.6206" width="15.1506" height="15.0345" rx="7.51724" fill="url(#paint8_linear_604_45078)"/>
</g>
<g filter="url(#filter3_d_604_45078)">
<rect x="92.1698" y="50.6206" width="15.1506" height="15.0345" rx="7.51724" fill="url(#paint9_linear_604_45078)"/>
</g>
<g filter="url(#filter4_i_604_45078)">
<path d="M101.205 53.793V54.9764C102.456 55.5448 103.394 56.784 103.394 58.219C103.394 60.185 101.751 61.7877 99.7356 61.7877C97.72 61.7877 96.077 60.185 96.077 58.219C96.077 56.784 97.0247 55.5448 98.2857 54.9764V53.793C96.3943 54.4173 94.9498 56.1691 94.9498 58.219C94.9498 60.8 97.0991 62.8965 99.7451 62.8965C102.391 62.8965 104.541 60.8 104.541 58.219C104.521 56.1691 103.096 54.4267 101.205 53.793Z" fill="url(#paint10_linear_604_45078)"/>
<path d="M100.231 52.8275H99.2586V55.7241H100.231V52.8275Z" fill="url(#paint11_linear_604_45078)"/>
</g>
<defs>
<filter id="filter0_i_604_45078" x="65.8997" y="48" width="44.0618" height="31.1622" filterUnits="userSpaceOnUse" color-interpolation-filters="sRGB">
<feFlood flood-opacity="0" result="BackgroundImageFix"/>
<feBlend mode="normal" in="SourceGraphic" in2="BackgroundImageFix" result="shape"/>
<feColorMatrix in="SourceAlpha" type="matrix" values="0 0 0 0 0 0 0 0 0 0 0 0 0 0 0 0 0 0 127 0" result="hardAlpha"/>
<feOffset dy="10.8864"/>
<feGaussianBlur stdDeviation="10.8864"/>
<feComposite in2="hardAlpha" operator="arithmetic" k2="-1" k3="1"/>
<feColorMatrix type="matrix" values="0 0 0 0 0.720833 0 0 0 0 0.372431 0 0 0 0 0.372431 0 0 0 0.5 0"/>
<feBlend mode="normal" in2="shape" result="effect1_innerShadow_604_45078"/>
</filter>
<filter id="filter1_ddddd_604_45078" x="-39.1615" y="-31.7167" width="277.813" height="277.687" filterUnits="userSpaceOnUse" color-interpolation-filters="sRGB">
<feFlood flood-opacity="0" result="BackgroundImageFix"/>
<feColorMatrix in="SourceAlpha" type="matrix" values="0 0 0 0 0 0 0 0 0 0 0 0 0 0 0 0 0 0 127 0" result="hardAlpha"/>
<feOffset dy="1.68271"/>
<feGaussianBlur stdDeviation="3.02319"/>
<feColorMatrix type="matrix" values="0 0 0 0 0 0 0 0 0 0 0 0 0 0 0 0 0 0 0.190443 0"/>
<feBlend mode="normal" in2="BackgroundImageFix" result="effect1_dropShadow_604_45078"/>
<feColorMatrix in="SourceAlpha" type="matrix" values="0 0 0 0 0 0 0 0 0 0 0 0 0 0 0 0 0 0 127 0" result="hardAlpha"/>
<feOffset dy="4.25569"/>
<feGaussianBlur stdDeviation="7.79762"/>
<feColorMatrix type="matrix" values="0 0 0 0 0 0 0 0 0 0 0 0 0 0 0 0 0 0 0.281617 0"/>
<feBlend mode="normal" in2="effect1_dropShadow_604_45078" result="effect2_dropShadow_604_45078"/>
<feColorMatrix in="SourceAlpha" type="matrix" values="0 0 0 0 0 0 0 0 0 0 0 0 0 0 0 0 0 0 127 0" result="hardAlpha"/>
<feOffset dy="8.68121"/>
<feGaussianBlur stdDeviation="15.5447"/>
<feColorMatrix type="matrix" values="0 0 0 0 0 0 0 0 0 0 0 0 0 0 0 0 0 0 0.356146 0"/>
<feBlend mode="normal" in2="effect2_dropShadow_604_45078" result="effect3_dropShadow_604_45078"/>
<feColorMatrix in="SourceAlpha" type="matrix" values="0 0 0 0 0 0 0 0 0 0 0 0 0 0 0 0 0 0 127 0" result="hardAlpha"/>
<feOffset dy="17.8817"/>
<feGaussianBlur stdDeviation="29.1875"/>
<feColorMatrix type="matrix" values="0 0 0 0 0 0 0 0 0 0 0 0 0 0 0 0 0 0 0.432245 0"/>
<feBlend mode="normal" in2="effect3_dropShadow_604_45078" result="effect4_dropShadow_604_45078"/>
<feColorMatrix in="SourceAlpha" type="matrix" values="0 0 0 0 0 0 0 0 0 0 0 0 0 0 0 0 0 0 127 0" result="hardAlpha"/>
<feOffset dy="48.9886"/>
<feGaussianBlur stdDeviation="65.3182"/>
<feColorMatrix type="matrix" values="0 0 0 0 0 0 0 0 0 0 0 0 0 0 0 0 0 0 0.59 0"/>
<feBlend mode="normal" in2="effect4_dropShadow_604_45078" result="effect5_dropShadow_604_45078"/>
<feBlend mode="normal" in="SourceGraphic" in2="effect5_dropShadow_604_45078" result="shape"/>
</filter>
<filter id="filter2_f_604_45078" x="70.3971" y="28.8479" width="58.696" height="58.5799" filterUnits="userSpaceOnUse" color-interpolation-filters="sRGB">
<feFlood flood-opacity="0" result="BackgroundImageFix"/>
<feBlend mode="normal" in="SourceGraphic" in2="BackgroundImageFix" result="shape"/>
<feGaussianBlur stdDeviation="10.8864" result="effect1_foregroundBlur_604_45078"/>
</filter>
<filter id="filter3_d_604_45078" x="81.2835" y="28.8479" width="58.696" height="58.5799" filterUnits="userSpaceOnUse" color-interpolation-filters="sRGB">
<feFlood flood-opacity="0" result="BackgroundImageFix"/>
<feColorMatrix in="SourceAlpha" type="matrix" values="0 0 0 0 0 0 0 0 0 0 0 0 0 0 0 0 0 0 127 0" result="hardAlpha"/>
<feOffset dx="10.8864"/>
<feGaussianBlur stdDeviation="10.8864"/>
<feColorMatrix type="matrix" values="0 0 0 0 0 0 0 0 0 0 0 0 0 0 0 0 0 0 0.3 0"/>
<feBlend mode="normal" in2="BackgroundImageFix" result="effect1_dropShadow_604_45078"/>
<feBlend mode="normal" in="SourceGraphic" in2="effect1_dropShadow_604_45078" result="shape"/>
</filter>
<filter id="filter4_i_604_45078" x="94.9498" y="52.8275" width="10.5907" height="10.069" filterUnits="userSpaceOnUse" color-interpolation-filters="sRGB">
<feFlood flood-opacity="0" result="BackgroundImageFix"/>
<feBlend mode="normal" in="SourceGraphic" in2="BackgroundImageFix" result="shape"/>
<feColorMatrix in="SourceAlpha" type="matrix" values="0 0 0 0 0 0 0 0 0 0 0 0 0 0 0 0 0 0 127 0" result="hardAlpha"/>
<feOffset dx="1"/>
<feGaussianBlur stdDeviation="3.2"/>
<feComposite in2="hardAlpha" operator="arithmetic" k2="-1" k3="1"/>
<feColorMatrix type="matrix" values="0 0 0 0 0 0 0 0 0 0 0 0 0 0 0 0 0 0 0.25 0"/>
<feBlend mode="normal" in2="shape" result="effect1_innerShadow_604_45078"/>
</filter>
<linearGradient id="paint0_linear_604_45078" x1="117.971" y1="68.2759" x2="117.971" y2="91.9915" gradientUnits="userSpaceOnUse">
<stop stop-color="#FBD360"/>
<stop offset="1" stop-color="#F2AF55"/>
</linearGradient>
<linearGradient id="paint1_linear_604_45078" x1="104.889" y1="70.8059" x2="104.889" y2="91.9915" gradientUnits="userSpaceOnUse">
<stop stop-color="#FBD360"/>
<stop offset="1" stop-color="#F2AF55"/>
</linearGradient>
<linearGradient id="paint2_linear_604_45078" x1="93.2039" y1="73.0036" x2="93.2039" y2="92" gradientUnits="userSpaceOnUse">
<stop stop-color="white"/>
<stop offset="1" stop-color="#C7C6B2"/>
</linearGradient>
<linearGradient id="paint3_linear_604_45078" x1="81.429" y1="73.0036" x2="81.429" y2="91.983" gradientUnits="userSpaceOnUse">
<stop stop-color="white"/>
<stop offset="1" stop-color="#C7C6B2"/>
</linearGradient>
<linearGradient id="paint4_linear_604_45078" x1="69.6539" y1="72.9952" x2="69.6539" y2="91.9745" gradientUnits="userSpaceOnUse">
<stop stop-color="white"/>
<stop offset="1" stop-color="#C7C6B2"/>
</linearGradient>
<linearGradient id="paint5_linear_604_45078" x1="57.9986" y1="68.2759" x2="57.9986" y2="91.9915" gradientUnits="userSpaceOnUse">
<stop stop-color="white"/>
<stop offset="1" stop-color="#C7C6B2"/>
</linearGradient>
<linearGradient id="paint6_linear_604_45078" x1="87.9305" y1="48" x2="87.9305" y2="68.2759" gradientUnits="userSpaceOnUse">
<stop stop-color="#D12D2D"/>
<stop offset="1" stop-color="#901E1E"/>
</linearGradient>
<linearGradient id="paint7_linear_604_45078" x1="91.4749" y1="58.1379" x2="108.015" y2="58.1379" gradientUnits="userSpaceOnUse">
<stop stop-color="#FD8686"/>
<stop offset="1" stop-color="#820F0F"/>
</linearGradient>
<linearGradient id="paint8_linear_604_45078" x1="92.1698" y1="58.1379" x2="107.32" y2="58.1379" gradientUnits="userSpaceOnUse">
<stop stop-color="#A90D0D"/>
<stop offset="0.515625" stop-color="#E27474"/>
<stop offset="1" stop-color="#FFE4E4"/>
</linearGradient>
<linearGradient id="paint9_linear_604_45078" x1="92.1698" y1="58.1379" x2="107.32" y2="58.1379" gradientUnits="userSpaceOnUse">
<stop stop-color="#A90D0D"/>
<stop offset="0.515625" stop-color="#E25757"/>
<stop offset="1" stop-color="#FFB0B0"/>
</linearGradient>
<linearGradient id="paint10_linear_604_45078" x1="94.9498" y1="58.7812" x2="104.54" y2="58.8587" gradientUnits="userSpaceOnUse">
<stop stop-color="#782020"/>
<stop offset="1" stop-color="#A73939"/>
</linearGradient>
<linearGradient id="paint11_linear_604_45078" x1="99.2586" y1="54.4147" x2="100.231" y2="54.4172" gradientUnits="userSpaceOnUse">
<stop stop-color="#782020"/>
<stop offset="1" stop-color="#A73939"/>
</linearGradient>
</defs>
</svg>