<svg width="582" height="581" viewBox="0 0 582 581" fill="none" xmlns="http://www.w3.org/2000/svg">
<rect y="241" width="582" height="236" fill="#F3B256"/>
<path d="M293.438 53.6085C405.696 53.6085 497.261 105.906 497.261 105.906C522.245 437.837 291.431 523.666 291.431 523.666C291.431 523.666 60.6854 437.906 85.7394 105.975C85.7394 105.975 177.304 53.6775 289.562 53.6775C290.185 53.6775 290.877 53.6775 291.5 53.6775C292.192 53.6085 292.815 53.6085 293.438 53.6085ZM293.438 0C292.815 0 292.123 0 291.5 0C290.877 0 290.185 0 289.562 0C164.431 0 63.177 56.9892 58.9552 59.404L34.1781 73.5478L32.0326 101.904C25.8037 184.697 33.9012 260.798 56.1868 328.067C74.4582 383.263 102.142 432.456 138.477 474.404C164.639 504.554 194.537 530.22 227.273 550.643C251.912 565.959 269.422 572.79 272.675 574.032L291.5 581L310.325 574.032C313.578 572.79 331.088 566.028 355.727 550.643C388.463 530.22 418.362 504.554 444.523 474.404C480.858 432.456 508.542 383.263 526.813 328.067C549.099 260.798 557.196 184.697 550.967 101.904L548.822 73.4788L524.045 59.335C519.823 56.9892 418.638 0 293.438 0Z" fill="#F3B256"/>
<path d="M293.307 69.1022C397.961 69.1022 483.323 117.979 483.323 117.979C506.616 428.201 291.435 508.416 291.435 508.416C291.435 508.416 76.3198 428.265 99.6767 118.044C99.6767 118.044 185.039 69.1667 289.693 69.1667C290.274 69.1667 290.919 69.1667 291.5 69.1667C292.145 69.1022 292.726 69.1022 293.307 69.1022ZM293.307 19C292.726 19 292.081 19 291.5 19C290.919 19 290.274 19 289.693 19C173.038 19 78.6426 72.2618 74.7068 74.5187L51.608 87.7374L49.6078 114.239C43.8008 191.617 51.3499 262.741 72.1259 325.61C89.1596 377.196 114.968 423.171 148.842 462.376C173.232 490.554 201.105 514.542 231.624 533.628C254.593 547.943 270.918 554.327 273.95 555.487L291.5 562L309.05 555.487C312.082 554.327 328.406 548.008 351.376 533.628C381.895 514.542 409.768 490.554 434.158 462.376C468.032 423.171 493.84 377.196 510.874 325.61C531.65 262.741 539.199 191.617 533.392 114.239L531.392 87.673L508.293 74.4542C504.357 72.2618 410.026 19 293.307 19Z" fill="#0A1221"/>
<path d="M483.799 118.044C483.799 118.044 397.404 68.5866 291.911 69.1669C186.418 68.5866 100.023 118.044 100.023 118.044C76.7309 428.265 291.911 508.481 291.911 508.481C291.911 508.481 507.091 428.265 483.799 118.044Z" fill="#0A1221"/>
<path d="M293.718 69.1024C398.372 69.1024 483.734 117.979 483.734 117.979C507.027 428.201 291.847 508.416 291.847 508.416C291.847 508.416 76.7309 428.265 100.088 118.044C100.088 118.044 185.45 69.1668 290.104 69.1668C290.685 69.1668 291.33 69.1668 291.911 69.1668C292.556 69.1024 293.137 69.1024 293.718 69.1024ZM293.718 35.314C293.137 35.314 292.492 35.314 291.911 35.314C291.33 35.314 290.685 35.314 290.104 35.314C177.708 35.314 87.0544 86.5124 83.2476 88.7048L67.6978 97.6033L66.3429 115.465C60.665 190.715 68.0205 259.646 88.0867 320.452C104.411 369.974 129.187 414.079 161.642 451.608C217.517 516.218 277.523 539.109 280.104 540.077L291.911 544.461L303.719 540.077C306.235 539.109 366.24 516.283 422.181 451.608C454.635 414.079 479.411 369.909 495.735 320.452C515.802 259.646 523.157 190.65 517.479 115.465L516.124 97.6033L500.575 88.7048C496.768 86.5124 406.115 35.314 293.718 35.314Z" fill="#ADADAD"/>
<path d="M483.698 118.044C483.698 118.044 397.304 68.5864 291.811 69.1667C186.317 68.5864 99.9227 118.044 99.9227 118.044C76.6304 428.265 291.811 508.48 291.811 508.48C291.811 508.48 506.991 428.265 483.698 118.044Z" fill="#0A1221"/>
<path d="M293.617 69.1022C398.272 69.1022 483.634 117.979 483.634 117.979C506.926 428.201 291.746 508.416 291.746 508.416C291.746 508.416 76.6304 428.265 99.9873 118.044C99.9873 118.044 185.35 69.1667 290.004 69.1667C290.585 69.1667 291.23 69.1667 291.811 69.1667C292.456 69.1022 293.037 69.1022 293.617 69.1022ZM293.617 50.5959C293.037 50.5959 292.391 50.5959 291.811 50.5959C291.23 50.5959 290.585 50.5959 290.004 50.5959C233.289 50.5959 182.317 64.4595 149.54 76.1307C113.924 88.7691 91.664 101.408 90.7607 101.988L82.2438 106.888L81.5341 116.69C76.0497 189.876 83.0826 256.873 102.568 315.745C118.312 363.332 142.056 405.697 173.22 441.742C226.579 503.451 283.036 524.988 285.423 525.89L291.875 528.276L298.327 525.89C300.715 524.988 357.171 503.451 410.531 441.742C441.695 405.697 465.439 363.332 481.182 315.745C500.668 256.873 507.701 189.876 502.216 116.69L501.507 106.888L492.99 101.988C492.086 101.472 469.762 88.7691 434.21 76.1307C401.304 64.4595 350.332 50.5959 293.617 50.5959Z" fill="#7F7E7C"/>
<path d="M483.195 118.176C483.195 118.176 396.887 68.7355 291.5 69.3156C186.113 68.7355 99.8046 118.176 99.8046 118.176C76.5356 428.292 291.5 508.479 291.5 508.479C291.5 508.479 506.464 428.292 483.195 118.176Z" fill="#0A1221"/>
<rect x="16" y="257" width="550" height="204" fill="#0B1221"/>
<path fill-rule="evenodd" clip-rule="evenodd" d="M525.041 366.627V273H550V444.938H527.561L486.618 336.921L463.257 275.409V273H485.696L526.7 379.041C525.594 373.791 525.041 369.653 525.041 366.627ZM488.216 444.938H463.257V321.358L488.216 387.132V444.938Z" fill="url(#paint0_linear_1020_78264)"/>
<path fill-rule="evenodd" clip-rule="evenodd" d="M418.81 307.276V324.94V334.327H406.145V324.94V307.276V291.343H418.81V307.276ZM424.281 307.276H434.609C442.908 307.276 447.027 311.476 447.027 319.937V432.339C447.027 440.739 442.908 444.938 434.609 444.938H390.161C382.047 444.938 377.989 440.739 377.989 432.339V319.937C377.989 311.476 382.047 307.276 390.161 307.276H400.735V324.94H398.461V427.213H426.555V324.94H424.281V307.276Z" fill="url(#paint1_linear_1020_78264)"/>
<path d="M349.403 307.276H307.66C299.361 307.276 295.242 311.476 295.242 319.937V350.014H315.345V324.94H341.718V353.967L316.574 371.012V375.335L341.718 392.69V427.275H315.345V400.657H295.18V432.401C295.18 440.8 299.238 445 307.353 445H349.341C357.579 445 361.698 440.8 361.698 432.401V393.801C361.698 388.305 359.485 384.167 355.058 381.388L342.21 373.297L354.874 365.021C359.423 362.057 361.698 357.796 361.698 352.361V319.999C361.698 311.476 357.579 307.276 349.403 307.276Z" fill="url(#paint2_linear_1020_78264)"/>
<path d="M227.679 392.134C228.54 387.934 228.97 384.599 228.97 382.191V307.276H208.99V444.876H226.942L259.77 358.228C258.909 362.428 258.479 365.763 258.479 368.171V444.876H278.459V307.276H260.508L227.679 392.134Z" fill="url(#paint3_linear_1020_78264)"/>
<path d="M187.843 380.091C187.412 379.659 183.785 377.312 176.838 373.051C183.539 368.913 187.105 366.628 187.535 366.257C190.425 363.663 191.9 360.019 191.9 355.326V319.876C191.9 311.415 187.843 307.215 179.728 307.215H125.383V444.815H180.097C186.982 444.815 192.638 439.195 192.638 432.216V391.331C192.576 386.638 191.039 382.809 187.843 380.091ZM145.854 324.569H171.49V357.92L161.592 364.96H145.854V324.569ZM172.043 427.584H145.854V381.697H161.961L172.043 388.367V427.584Z" fill="url(#paint4_linear_1020_78264)"/>
<path fill-rule="evenodd" clip-rule="evenodd" d="M114.563 273L87.6361 336.55L79.3368 356.005L65.8735 387.749L57.6357 407.265V444.938H32V273H57.6357V345.753L86.0377 273H114.071H114.563ZM90.0952 444.938L74.7261 408.624L88.3738 376.509L118.313 444.938H90.0952Z" fill="url(#paint5_linear_1020_78264)"/>
<g filter="url(#filter0_i_1020_78264)">
<path d="M132 203.5C132 162.907 164.907 130 205.5 130H375.5C416.093 130 449 162.907 449 203.5C449 244.093 416.093 277 375.5 277H205.5C164.907 277 132 244.093 132 203.5Z" fill="url(#paint6_linear_1020_78264)"/>
</g>
<g filter="url(#filter1_ddddd_1020_78264)">
<rect x="316" y="144" width="119" height="119" rx="59.5" fill="url(#paint7_linear_1020_78264)"/>
</g>
<g filter="url(#filter2_f_1020_78264)">
<rect x="321" y="149" width="109" height="109" rx="54.5" fill="url(#paint8_linear_1020_78264)"/>
</g>
<g filter="url(#filter3_d_1020_78264)">
<rect x="321" y="149" width="109" height="109" rx="54.5" fill="url(#paint9_linear_1020_78264)"/>
</g>
<g filter="url(#filter4_i_1020_78264)">
<path d="M386 172V180.579C395.003 184.7 401.753 193.685 401.753 204.088C401.753 218.342 389.932 229.961 375.431 229.961C360.93 229.961 349.11 218.342 349.11 204.088C349.11 193.685 355.928 184.7 365 180.579V172C351.392 176.526 341 189.226 341 204.088C341 222.8 356.463 238 375.5 238C394.537 238 410 222.8 410 204.088C409.863 189.226 399.608 176.594 386 172Z" fill="url(#paint10_linear_1020_78264)"/>
<path d="M379 165H372V186H379V165Z" fill="url(#paint11_linear_1020_78264)"/>
</g>
<defs>
<filter id="filter0_i_1020_78264" x="132" y="130" width="317" height="157.886" filterUnits="userSpaceOnUse" color-interpolation-filters="sRGB">
<feFlood flood-opacity="0" result="BackgroundImageFix"/>
<feBlend mode="normal" in="SourceGraphic" in2="BackgroundImageFix" result="shape"/>
<feColorMatrix in="SourceAlpha" type="matrix" values="0 0 0 0 0 0 0 0 0 0 0 0 0 0 0 0 0 0 127 0" result="hardAlpha"/>
<feOffset dy="10.8864"/>
<feGaussianBlur stdDeviation="10.8864"/>
<feComposite in2="hardAlpha" operator="arithmetic" k2="-1" k3="1"/>
<feColorMatrix type="matrix" values="0 0 0 0 0.720833 0 0 0 0 0.372431 0 0 0 0 0.372431 0 0 0 0.5 0"/>
<feBlend mode="normal" in2="shape" result="effect1_innerShadow_1020_78264"/>
</filter>
<filter id="filter1_ddddd_1020_78264" x="185.364" y="62.3523" width="380.273" height="380.273" filterUnits="userSpaceOnUse" color-interpolation-filters="sRGB">
<feFlood flood-opacity="0" result="BackgroundImageFix"/>
<feColorMatrix in="SourceAlpha" type="matrix" values="0 0 0 0 0 0 0 0 0 0 0 0 0 0 0 0 0 0 127 0" result="hardAlpha"/>
<feOffset dy="1.68271"/>
<feGaussianBlur stdDeviation="3.02319"/>
<feColorMatrix type="matrix" values="0 0 0 0 0 0 0 0 0 0 0 0 0 0 0 0 0 0 0.190443 0"/>
<feBlend mode="normal" in2="BackgroundImageFix" result="effect1_dropShadow_1020_78264"/>
<feColorMatrix in="SourceAlpha" type="matrix" values="0 0 0 0 0 0 0 0 0 0 0 0 0 0 0 0 0 0 127 0" result="hardAlpha"/>
<feOffset dy="4.25569"/>
<feGaussianBlur stdDeviation="7.79762"/>
<feColorMatrix type="matrix" values="0 0 0 0 0 0 0 0 0 0 0 0 0 0 0 0 0 0 0.281617 0"/>
<feBlend mode="normal" in2="effect1_dropShadow_1020_78264" result="effect2_dropShadow_1020_78264"/>
<feColorMatrix in="SourceAlpha" type="matrix" values="0 0 0 0 0 0 0 0 0 0 0 0 0 0 0 0 0 0 127 0" result="hardAlpha"/>
<feOffset dy="8.68121"/>
<feGaussianBlur stdDeviation="15.5447"/>
<feColorMatrix type="matrix" values="0 0 0 0 0 0 0 0 0 0 0 0 0 0 0 0 0 0 0.356146 0"/>
<feBlend mode="normal" in2="effect2_dropShadow_1020_78264" result="effect3_dropShadow_1020_78264"/>
<feColorMatrix in="SourceAlpha" type="matrix" values="0 0 0 0 0 0 0 0 0 0 0 0 0 0 0 0 0 0 127 0" result="hardAlpha"/>
<feOffset dy="17.8817"/>
<feGaussianBlur stdDeviation="29.1875"/>
<feColorMatrix type="matrix" values="0 0 0 0 0 0 0 0 0 0 0 0 0 0 0 0 0 0 0.432245 0"/>
<feBlend mode="normal" in2="effect3_dropShadow_1020_78264" result="effect4_dropShadow_1020_78264"/>
<feColorMatrix in="SourceAlpha" type="matrix" values="0 0 0 0 0 0 0 0 0 0 0 0 0 0 0 0 0 0 127 0" result="hardAlpha"/>
<feOffset dy="48.9886"/>
<feGaussianBlur stdDeviation="65.3182"/>
<feColorMatrix type="matrix" values="0 0 0 0 0 0 0 0 0 0 0 0 0 0 0 0 0 0 0.59 0"/>
<feBlend mode="normal" in2="effect4_dropShadow_1020_78264" result="effect5_dropShadow_1020_78264"/>
<feBlend mode="normal" in="SourceGraphic" in2="effect5_dropShadow_1020_78264" result="shape"/>
</filter>
<filter id="filter2_f_1020_78264" x="299.227" y="127.227" width="152.545" height="152.545" filterUnits="userSpaceOnUse" color-interpolation-filters="sRGB">
<feFlood flood-opacity="0" result="BackgroundImageFix"/>
<feBlend mode="normal" in="SourceGraphic" in2="BackgroundImageFix" result="shape"/>
<feGaussianBlur stdDeviation="10.8864" result="effect1_foregroundBlur_1020_78264"/>
</filter>
<filter id="filter3_d_1020_78264" x="310.114" y="127.227" width="152.545" height="152.545" filterUnits="userSpaceOnUse" color-interpolation-filters="sRGB">
<feFlood flood-opacity="0" result="BackgroundImageFix"/>
<feColorMatrix in="SourceAlpha" type="matrix" values="0 0 0 0 0 0 0 0 0 0 0 0 0 0 0 0 0 0 127 0" result="hardAlpha"/>
<feOffset dx="10.8864"/>
<feGaussianBlur stdDeviation="10.8864"/>
<feColorMatrix type="matrix" values="0 0 0 0 0 0 0 0 0 0 0 0 0 0 0 0 0 0 0.3 0"/>
<feBlend mode="normal" in2="BackgroundImageFix" result="effect1_dropShadow_1020_78264"/>
<feBlend mode="normal" in="SourceGraphic" in2="effect1_dropShadow_1020_78264" result="shape"/>
</filter>
<filter id="filter4_i_1020_78264" x="341" y="165" width="70" height="73" filterUnits="userSpaceOnUse" color-interpolation-filters="sRGB">
<feFlood flood-opacity="0" result="BackgroundImageFix"/>
<feBlend mode="normal" in="SourceGraphic" in2="BackgroundImageFix" result="shape"/>
<feColorMatrix in="SourceAlpha" type="matrix" values="0 0 0 0 0 0 0 0 0 0 0 0 0 0 0 0 0 0 127 0" result="hardAlpha"/>
<feOffset dx="1"/>
<feGaussianBlur stdDeviation="3.2"/>
<feComposite in2="hardAlpha" operator="arithmetic" k2="-1" k3="1"/>
<feColorMatrix type="matrix" values="0 0 0 0 0 0 0 0 0 0 0 0 0 0 0 0 0 0 0.25 0"/>
<feBlend mode="normal" in2="shape" result="effect1_innerShadow_1020_78264"/>
</filter>
<linearGradient id="paint0_linear_1020_78264" x1="506.628" y1="273" x2="506.628" y2="444.938" gradientUnits="userSpaceOnUse">
<stop stop-color="#FBD360"/>
<stop offset="1" stop-color="#F2AF55"/>
</linearGradient>
<linearGradient id="paint1_linear_1020_78264" x1="412.508" y1="291.343" x2="412.508" y2="444.938" gradientUnits="userSpaceOnUse">
<stop stop-color="#FBD360"/>
<stop offset="1" stop-color="#F2AF55"/>
</linearGradient>
<linearGradient id="paint2_linear_1020_78264" x1="328.439" y1="307.276" x2="328.439" y2="445" gradientUnits="userSpaceOnUse">
<stop stop-color="white"/>
<stop offset="1" stop-color="#C7C6B2"/>
</linearGradient>
<linearGradient id="paint3_linear_1020_78264" x1="243.725" y1="307.276" x2="243.725" y2="444.876" gradientUnits="userSpaceOnUse">
<stop stop-color="white"/>
<stop offset="1" stop-color="#C7C6B2"/>
</linearGradient>
<linearGradient id="paint4_linear_1020_78264" x1="159.01" y1="307.215" x2="159.01" y2="444.815" gradientUnits="userSpaceOnUse">
<stop stop-color="white"/>
<stop offset="1" stop-color="#C7C6B2"/>
</linearGradient>
<linearGradient id="paint5_linear_1020_78264" x1="75.1564" y1="273" x2="75.1564" y2="444.938" gradientUnits="userSpaceOnUse">
<stop stop-color="white"/>
<stop offset="1" stop-color="#C7C6B2"/>
</linearGradient>
<linearGradient id="paint6_linear_1020_78264" x1="290.5" y1="130" x2="290.5" y2="277" gradientUnits="userSpaceOnUse">
<stop stop-color="#D12D2D"/>
<stop offset="1" stop-color="#901E1E"/>
</linearGradient>
<linearGradient id="paint7_linear_1020_78264" x1="316" y1="203.5" x2="435" y2="203.5" gradientUnits="userSpaceOnUse">
<stop stop-color="#FD8686"/>
<stop offset="1" stop-color="#820F0F"/>
</linearGradient>
<linearGradient id="paint8_linear_1020_78264" x1="321" y1="203.5" x2="430" y2="203.5" gradientUnits="userSpaceOnUse">
<stop stop-color="#A90D0D"/>
<stop offset="0.515625" stop-color="#E27474"/>
<stop offset="1" stop-color="#FFE4E4"/>
</linearGradient>
<linearGradient id="paint9_linear_1020_78264" x1="321" y1="203.5" x2="430" y2="203.5" gradientUnits="userSpaceOnUse">
<stop stop-color="#A90D0D"/>
<stop offset="0.515625" stop-color="#E25757"/>
<stop offset="1" stop-color="#FFB0B0"/>
</linearGradient>
<linearGradient id="paint10_linear_1020_78264" x1="341" y1="208.164" x2="409.999" y2="208.717" gradientUnits="userSpaceOnUse">
<stop stop-color="#782020"/>
<stop offset="1" stop-color="#A73939"/>
</linearGradient>
<linearGradient id="paint11_linear_1020_78264" x1="372" y1="176.507" x2="379" y2="176.525" gradientUnits="userSpaceOnUse">
<stop stop-color="#782020"/>
<stop offset="1" stop-color="#A73939"/>
</linearGradient>
</defs>
</svg>
