<svg width="20" height="20" viewBox="0 0 20 20" fill="none" xmlns="http://www.w3.org/2000/svg">
<path d="M10 10.7428C13.7164 10.7428 17.5299 13.1693 17.7769 18.0441C17.7864 18.232 17.7212 18.416 17.5957 18.5557C17.4702 18.6954 17.2946 18.7794 17.1075 18.7892C15.1466 18.8895 6.0649 18.9511 2.89344 18.7892C2.70617 18.7796 2.53034 18.6958 2.40464 18.556C2.27893 18.4163 2.21364 18.2322 2.22314 18.0441C2.47014 13.1703 6.28363 10.7428 10 10.7428ZM10 2.22217C9.06237 2.22217 8.16313 2.59621 7.50012 3.26202C6.83711 3.92783 6.46464 4.83085 6.46464 5.77244C6.46464 6.71404 6.83711 7.61706 7.50012 8.28287C8.16313 8.94867 9.06237 9.32272 10 9.32272C10.9376 9.32272 11.8369 8.94867 12.4999 8.28287C13.1629 7.61706 13.5354 6.71404 13.5354 5.77244C13.5354 4.83085 13.1629 3.92783 12.4999 3.26202C11.8369 2.59621 10.9376 2.22217 10 2.22217Z" fill="white"/>
</svg>
