<svg width="21" height="20" viewBox="0 0 21 20" fill="none" xmlns="http://www.w3.org/2000/svg">
<path d="M10.5 10.7429C14.2164 10.7429 18.0299 13.1694 18.2769 18.0442C18.2864 18.2321 18.2212 18.4161 18.0957 18.5558C17.9702 18.6955 17.7946 18.7794 17.6075 18.7892C15.6466 18.8896 6.5649 18.9511 3.39344 18.7892C3.20617 18.7797 3.03034 18.6958 2.90464 18.5561C2.77893 18.4164 2.71364 18.2322 2.72314 18.0442C2.97014 13.1703 6.78363 10.7429 10.5 10.7429ZM10.5 2.22223C9.56237 2.22223 8.66313 2.59627 8.00012 3.26208C7.33711 3.92789 6.96464 4.83091 6.96464 5.7725C6.96464 6.7141 7.33711 7.61712 8.00012 8.28293C8.66313 8.94873 9.56237 9.32278 10.5 9.32278C11.4376 9.32278 12.3369 8.94873 12.9999 8.28293C13.6629 7.61712 14.0354 6.7141 14.0354 5.7725C14.0354 4.83091 13.6629 3.92789 12.9999 3.26208C12.3369 2.59627 11.4376 2.22223 10.5 2.22223Z" fill="black"/>
</svg>
