<svg width="20" height="20" viewBox="0 0 20 20" fill="none" xmlns="http://www.w3.org/2000/svg">
<path d="M8.53167 3.31167L8.31667 4.79167H11.6808L11.4675 3.31167C11.4275 3.1725 11.3258 3.125 11.265 3.125H8.73333C8.6725 3.125 8.57167 3.1725 8.53167 3.31167ZM12.9442 4.79167H16.25C16.4158 4.79167 16.5747 4.85751 16.6919 4.97472C16.8092 5.09193 16.875 5.25091 16.875 5.41667C16.875 5.58243 16.8092 5.7414 16.6919 5.85861C16.5747 5.97582 16.4158 6.04167 16.25 6.04167H15.6092L14.8817 14.5292C14.8375 15.0458 14.8017 15.4708 14.7442 15.8142C14.6858 16.1717 14.5967 16.4917 14.4225 16.7883C14.149 17.2543 13.7424 17.6278 13.255 17.8608C12.945 18.0083 12.6183 18.0692 12.2567 18.0975C11.9092 18.125 11.4833 18.125 10.965 18.125H9.035C8.51583 18.125 8.09083 18.125 7.74333 18.0975C7.38167 18.0692 7.055 18.0083 6.745 17.8608C6.25757 17.6278 5.85098 17.2543 5.5775 16.7883C5.4025 16.4917 5.315 16.1717 5.25583 15.8142C5.19833 15.47 5.1625 15.0458 5.11833 14.5292L4.39083 6.04167H3.75C3.58424 6.04167 3.42527 5.97582 3.30806 5.85861C3.19085 5.7414 3.125 5.58243 3.125 5.41667C3.125 5.25091 3.19085 5.09193 3.30806 4.97472C3.42527 4.85751 3.58424 4.79167 3.75 4.79167H7.055L7.29917 3.10083L7.30833 3.05C7.46 2.39167 8.025 1.875 8.73333 1.875H11.2667C11.975 1.875 12.54 2.39167 12.6917 3.05L12.7008 3.10083L12.9442 4.79167Z" fill="white"/>
</svg>
