<svg width="32" height="32" viewBox="0 0 32 32" fill="none" xmlns="http://www.w3.org/2000/svg">
<path d="M25.2 10.6666C25.2889 10.2346 25.3333 9.7902 25.3333 9.33331C25.3324 8.40189 25.1363 7.481 24.7577 6.63001C24.379 5.77901 23.8263 5.0168 23.1351 4.39251C22.4438 3.76821 21.6295 3.29569 20.7444 3.0054C19.8594 2.7151 18.9234 2.61349 17.9967 2.70709C17.07 2.8007 16.1732 3.08745 15.3641 3.54887C14.555 4.01029 13.8515 4.63612 13.2991 5.38604C12.7467 6.13596 12.3575 6.99331 12.1568 7.90283C11.956 8.81235 11.948 9.75385 12.1333 10.6666M21.3333 18.6666C21.3333 19.1971 21.544 19.7058 21.9191 20.0809C22.2942 20.4559 22.8029 20.6666 23.3333 20.6666C23.8638 20.6666 24.3725 20.4559 24.7475 20.0809C25.1226 19.7058 25.3333 19.1971 25.3333 18.6666C25.3333 18.1362 25.1226 17.6275 24.7475 17.2524C24.3725 16.8774 23.8638 16.6666 23.3333 16.6666C22.8029 16.6666 22.2942 16.8774 21.9191 17.2524C21.544 17.6275 21.3333 18.1362 21.3333 18.6666Z" stroke="#869EBA" stroke-width="2" stroke-linecap="round" stroke-linejoin="round"/>
<path d="M9.33341 10.6573H21.3334C25.1041 10.6573 26.9907 10.6573 28.1614 11.8306C29.3334 13.0013 29.3334 14.888 29.3334 18.6613V21.3293C29.3334 25.1026 29.3334 26.9893 28.1614 28.1613C26.9907 29.3333 25.1041 29.3333 21.3334 29.3333H13.3334C8.30542 29.3333 5.79075 29.3333 4.22941 27.7706C2.66808 26.208 2.66675 23.692 2.66675 18.6613V15.9946C2.66675 10.9626 2.66675 8.44798 4.22941 6.88398C5.48675 5.62665 7.36008 5.38131 10.6667 5.33331H13.3334" stroke="#869EBA" stroke-width="2" stroke-linecap="round" stroke-linejoin="round"/>
</svg>
